<?xml version="1.0" encoding="UTF-8"?>
<svg id="Camada_1" data-name="Camada 1" xmlns="http://www.w3.org/2000/svg" xmlns:xlink="http://www.w3.org/1999/xlink" viewBox="0 0 1920 1080">
  <defs>
    <style>
      .cls-1, .cls-2 {
        fill: #f4d331;
      }

      .cls-3, .cls-4 {
        fill: #fff;
      }

      .cls-4, .cls-2, .cls-5, .cls-6, .cls-7 {
        stroke: #000;
        stroke-miterlimit: 10;
      }

      .cls-8 {
        fill: none;
      }

      .cls-9 {
        clip-path: url(#clippath-1);
      }

      .cls-10, .cls-7 {
        fill: #3e6fc6;
      }

      .cls-11, .cls-6 {
        fill: #7fd13f;
      }

      .cls-5, .cls-12 {
        fill: #ce3ac0;
      }

      .cls-13 {
        clip-path: url(#clippath);
      }
    </style>
    <clipPath id="clippath">
      <path class="cls-8" d="M863.46,653.51h105.28c11.67,0,21.13,9.46,21.13,21.13v48.4c0,11.65-9.44,21.09-21.09,21.09h-186.66c-8.37,0-15.15-6.78-15.15-15.15v-362.03c0-10.47,8.48-18.95,18.95-18.95h60.05c9.66,0,17.49,7.83,17.49,17.49v288.03Z"/>
    </clipPath>
    <clipPath id="clippath-1">
      <path class="cls-8" d="M1046.02,734.82l-68.15-210.87h-16.6v93.73c0,7.47-6.06,13.53-13.53,13.53h-40.11c-8.6,0-15.57-6.97-15.57-15.57v-238.93c0-16.38,13.28-29.65,29.65-29.65h86.52c22.4,0,41.49,3.92,57.28,11.74,15.79,7.83,27.58,18.56,35.42,32.18,7.82,13.63,11.74,28.81,11.74,45.54,0,18.89-5.33,35.76-15.99,50.6-10.66,14.84-26.38,25.37-47.15,31.57l69.16,207.25c4.66,8-1.11,18.03-10.36,18.03h-46.8c-6.44,0-12.38-3.51-15.49-9.15ZM958.28,465.15c0,6.86,5.56,12.42,12.42,12.42h33.66c13.61,0,23.83-3.33,30.64-10,6.8-6.66,10.21-16.09,10.21-28.26,0-11.59-3.41-20.72-10.21-27.38-6.81-6.66-17.03-10-30.64-10h-30.74c-8.47,0-15.34,6.87-15.34,15.34v47.88Z"/>
    </clipPath>
  </defs>
  <g>
    <g class="cls-13">
      <g>
        <g>
          <path class="cls-3" d="M917.58,452.95v77.86c0,11.61-10.21,21.03-21.66,21.03h-76.72c-1.84,0-3.33-1.51-3.33-3.38v-29.31c0-2.42,2.02-4.75,4.22-3.83,2,.85,4.6,2.01,6.91,1.98,8.86-.12,16.07-7.48,16.14-16.48.07-9.23-7.28-16.73-16.36-16.73-2.23,0-4.35.45-6.28,1.27-2.2.93-4.62-.67-4.62-3.09v-29.33c0-1.87,1.49-3.38,3.33-3.38h27.95c2.16,0,3.78,2.06,3.24,4.19-.35,1.38-.52,2.82-.5,4.31.1,9.01,7.36,16.35,16.24,16.41,9.09.07,14.64-7.39,14.64-16.61,0-1.41-.17-2.77-.5-4.07-.53-2.14,2.89-4.23,5.07-4.23h27.97c1.84,0,4.27,1.51,4.27,3.38Z"/>
          <path class="cls-3" d="M714.4,446.95v-77.86c0-11.61,9.42-21.03,21.03-21.03h77.86c1.87,0,3.38,1.51,3.38,3.38v29.31c0,2.42-2.46,4.04-4.69,3.11-2.03-.85-4.26-1.3-6.61-1.27-9,.12-16.31,7.48-16.38,16.48-.07,9.23,7.39,16.73,16.61,16.73,2.26,0,4.41-.45,6.38-1.27,2.23-.93,4.69.67,4.69,3.09v29.33c0,1.87-1.51,3.38-3.38,3.38h-28.37c-2.2,0-3.83-2.06-3.29-4.19.35-1.38.53-2.82.51-4.31-.1-9.01-7.47-16.35-16.48-16.41s-16.73,7.39-16.73,16.61c0,1.41.17,2.77.5,4.07.54,2.14-1.06,4.23-3.27,4.23h-28.38c-1.87,0-3.38-1.51-3.38-3.38Z"/>
          <path class="cls-3" d="M844.35,500.84c-.07,9-7.38,16.36-16.38,16.48-2.35.03-4.58-.42-6.62-1.27-2.23-.93-4.68.7-4.68,3.11v29.32c0,1.86-1.51,3.37-3.37,3.37h-77.87c-11.61,0-21.03-9.42-21.03-21.03v-77.87c0-1.86,1.51-3.37,3.37-3.37h28.38c2.2,0,3.83-2.06,3.29-4.19-.35-1.38-.53-2.82-.51-4.31.1-9.01,7.47-16.35,16.48-16.41,9.23-.07,16.73,7.39,16.73,16.61,0,1.41-.18,2.78-.51,4.08-.54,2.14,1.06,4.22,3.26,4.22h28.4c1.86,0,3.37,1.51,3.37,3.37v29.33c0,2.42,2.46,4.02,4.69,3.09,1.96-.82,4.12-1.27,6.38-1.27,9.21,0,16.67,7.5,16.61,16.73Z"/>
          <path class="cls-3" d="M913.84,450.33h-28.38c-2.2,0-3.83,2.06-3.29,4.19.35,1.38.53,2.82.51,4.31-.1,9.01-7.47,16.35-16.48,16.41-9.23.07-16.73-7.39-16.73-16.61,0-1.41.18-2.78.51-4.08.54-2.14-1.06-4.22-3.26-4.22h-28.4c-1.86,0-3.37-1.51-3.37-3.37v-29.32c0-2.41-2.45-4.04-4.68-3.11-2.03.85-4.27,1.3-6.62,1.27-9-.12-16.31-7.48-16.38-16.48-.07-9.23,7.39-16.73,16.61-16.73,2.26,0,4.41.45,6.38,1.27,2.23.93,4.69-.67,4.69-3.09v-29.33c0-1.86,1.51-3.37,3.37-3.37h77.87c11.61,0,21.03,9.42,21.03,21.03v77.87c0,1.86-1.51,3.37-3.37,3.37Z"/>
        </g>
        <g>
          <path class="cls-3" d="M917.58,654.86v77.86c0,11.61-10.21,21.03-21.66,21.03h-76.72c-1.84,0-3.33-1.51-3.33-3.38v-29.31c0-2.42,2.02-4.75,4.22-3.83,2,.85,4.6,2.01,6.91,1.98,8.86-.12,16.07-7.48,16.14-16.48.07-9.23-7.28-16.73-16.36-16.73-2.23,0-4.35.45-6.28,1.27-2.2.93-4.62-.67-4.62-3.09v-29.33c0-1.87,1.49-3.38,3.33-3.38h27.95c2.16,0,3.78,2.06,3.24,4.19-.35,1.38-.52,2.82-.5,4.31.1,9.01,7.36,16.35,16.24,16.41,9.09.07,14.64-7.39,14.64-16.61,0-1.41-.17-2.77-.5-4.07-.53-2.14,2.89-4.23,5.07-4.23h27.97c1.84,0,4.27,1.51,4.27,3.38Z"/>
          <path class="cls-3" d="M714.4,648.85v-77.86c0-11.61,9.42-21.03,21.03-21.03h77.86c1.87,0,3.38,1.51,3.38,3.38v29.31c0,2.42-2.46,4.04-4.69,3.11-2.03-.85-4.26-1.3-6.61-1.27-9,.12-16.31,7.48-16.38,16.48-.07,9.23,7.39,16.73,16.61,16.73,2.26,0,4.41-.45,6.38-1.27,2.23-.93,4.69.67,4.69,3.09v29.33c0,1.87-1.51,3.38-3.38,3.38h-28.37c-2.2,0-3.83-2.06-3.29-4.19.35-1.38.53-2.82.51-4.31-.1-9.01-7.47-16.35-16.48-16.41-9.23-.07-16.73,7.39-16.73,16.61,0,1.41.17,2.77.5,4.07.54,2.14-1.06,4.23-3.27,4.23h-28.38c-1.87,0-3.38-1.51-3.38-3.38Z"/>
          <path class="cls-3" d="M844.35,702.74c-.07,9-7.38,16.36-16.38,16.48-2.35.03-4.58-.42-6.62-1.27-2.23-.93-4.68.7-4.68,3.11v29.32c0,1.86-1.51,3.37-3.37,3.37h-77.87c-11.61,0-21.03-9.42-21.03-21.03v-77.87c0-1.86,1.51-3.37,3.37-3.37h28.38c2.2,0,3.83-2.06,3.29-4.19-.35-1.38-.53-2.82-.51-4.31.1-9.01,7.47-16.35,16.48-16.41,9.23-.07,16.73,7.39,16.73,16.61,0,1.41-.18,2.78-.51,4.08-.54,2.14,1.06,4.22,3.26,4.22h28.4c1.86,0,3.37,1.51,3.37,3.37v29.33c0,2.42,2.46,4.02,4.69,3.09,1.96-.82,4.12-1.27,6.38-1.27,9.21,0,16.67,7.5,16.61,16.73Z"/>
          <path class="cls-3" d="M913.84,652.23h-28.38c-2.2,0-3.83,2.06-3.29,4.19.35,1.38.53,2.82.51,4.31-.1,9.01-7.47,16.35-16.48,16.41-9.23.07-16.73-7.39-16.73-16.61,0-1.41.18-2.78.51-4.08.54-2.14-1.06-4.22-3.26-4.22h-28.4c-1.86,0-3.37-1.51-3.37-3.37v-29.32c0-2.41-2.45-4.04-4.68-3.11-2.03.85-4.27,1.3-6.62,1.27-9-.12-16.31-7.48-16.38-16.48-.07-9.23,7.39-16.73,16.61-16.73,2.26,0,4.41.45,6.38,1.27,2.23.93,4.69-.67,4.69-3.09v-29.33c0-1.86,1.51-3.37,3.37-3.37h77.87c11.61,0,21.03,9.42,21.03,21.03v77.87c0,1.86-1.51,3.37-3.37,3.37Z"/>
        </g>
        <g>
          <path class="cls-1" d="M1117.47,452.95v77.86c0,11.61-10.21,21.03-21.66,21.03h-76.72c-1.84,0-3.33-1.51-3.33-3.38v-29.31c0-2.42,2.02-4.75,4.22-3.83,2,.85,4.6,2.01,6.91,1.98,8.86-.12,16.07-7.48,16.14-16.48.07-9.23-7.28-16.73-16.36-16.73-2.23,0-4.35.45-6.28,1.27-2.2.93-4.62-.67-4.62-3.09v-29.33c0-1.87,1.49-3.38,3.33-3.38h27.95c2.16,0,3.78,2.06,3.24,4.19-.35,1.38-.52,2.82-.5,4.31.1,9.01,7.36,16.35,16.24,16.41,9.09.07,14.64-7.39,14.64-16.61,0-1.41-.17-2.77-.5-4.07-.53-2.14,2.89-4.23,5.07-4.23h27.97c1.84,0,4.27,1.51,4.27,3.38Z"/>
          <path class="cls-11" d="M914.29,446.95v-77.86c0-11.61,9.42-21.03,21.03-21.03h77.86c1.87,0,3.38,1.51,3.38,3.38v29.31c0,2.42-2.46,4.04-4.69,3.11-2.03-.85-4.26-1.3-6.61-1.27-9,.12-16.31,7.48-16.38,16.48-.07,9.23,7.39,16.73,16.61,16.73,2.26,0,4.41-.45,6.38-1.27,2.23-.93,4.69.67,4.69,3.09v29.33c0,1.87-1.51,3.38-3.38,3.38h-28.37c-2.2,0-3.83-2.06-3.29-4.19.35-1.38.53-2.82.51-4.31-.1-9.01-7.47-16.35-16.48-16.41s-16.73,7.39-16.73,16.61c0,1.41.17,2.77.5,4.07.54,2.14-1.06,4.23-3.27,4.23h-28.38c-1.87,0-3.38-1.51-3.38-3.38Z"/>
          <path class="cls-12" d="M1044.24,500.84c-.07,9-7.38,16.36-16.38,16.48-2.35.03-4.58-.42-6.62-1.27-2.23-.93-4.68.7-4.68,3.11v29.32c0,1.86-1.51,3.37-3.37,3.37h-77.87c-11.61,0-21.03-9.42-21.03-21.03v-77.87c0-1.86,1.51-3.37,3.37-3.37h28.38c2.2,0,3.83-2.06,3.29-4.19-.35-1.38-.53-2.82-.51-4.31.1-9.01,7.47-16.35,16.48-16.41,9.23-.07,16.73,7.39,16.73,16.61,0,1.41-.18,2.78-.51,4.08-.54,2.14,1.06,4.22,3.26,4.22h28.4c1.86,0,3.37,1.51,3.37,3.37v29.33c0,2.42,2.46,4.02,4.69,3.09,1.96-.82,4.12-1.27,6.38-1.27,9.21,0,16.67,7.5,16.61,16.73Z"/>
          <path class="cls-10" d="M1113.73,450.33h-28.38c-2.2,0-3.83,2.06-3.29,4.19.35,1.38.53,2.82.51,4.31-.1,9.01-7.47,16.35-16.48,16.41-9.23.07-16.73-7.39-16.73-16.61,0-1.41.18-2.78.51-4.08.54-2.14-1.06-4.22-3.26-4.22h-28.4c-1.86,0-3.37-1.51-3.37-3.37v-29.32c0-2.41-2.45-4.04-4.68-3.11-2.03.85-4.27,1.3-6.62,1.27-9-.12-16.31-7.48-16.38-16.48-.07-9.23,7.39-16.73,16.61-16.73,2.26,0,4.41.45,6.38,1.27,2.23.93,4.69-.67,4.69-3.09v-29.33c0-1.86,1.51-3.37,3.37-3.37h77.87c11.61,0,21.03,9.42,21.03,21.03v77.87c0,1.86-1.51,3.37-3.37,3.37Z"/>
        </g>
        <g>
          <path class="cls-1" d="M1117.47,654.86v77.86c0,11.61-10.21,21.03-21.66,21.03h-76.72c-1.84,0-3.33-1.51-3.33-3.38v-29.31c0-2.42,2.02-4.75,4.22-3.83,2,.85,4.6,2.01,6.91,1.98,8.86-.12,16.07-7.48,16.14-16.48.07-9.23-7.28-16.73-16.36-16.73-2.23,0-4.35.45-6.28,1.27-2.2.93-4.62-.67-4.62-3.09v-29.33c0-1.87,1.49-3.38,3.33-3.38h27.95c2.16,0,3.78,2.06,3.24,4.19-.35,1.38-.52,2.82-.5,4.31.1,9.01,7.36,16.35,16.24,16.41,9.09.07,14.64-7.39,14.64-16.61,0-1.41-.17-2.77-.5-4.07-.53-2.14,2.89-4.23,5.07-4.23h27.97c1.84,0,4.27,1.51,4.27,3.38Z"/>
          <path class="cls-11" d="M914.29,648.85v-77.86c0-11.61,9.42-21.03,21.03-21.03h77.86c1.87,0,3.38,1.51,3.38,3.38v29.31c0,2.42-2.46,4.04-4.69,3.11-2.03-.85-4.26-1.3-6.61-1.27-9,.12-16.31,7.48-16.38,16.48-.07,9.23,7.39,16.73,16.61,16.73,2.26,0,4.41-.45,6.38-1.27,2.23-.93,4.69.67,4.69,3.09v29.33c0,1.87-1.51,3.38-3.38,3.38h-28.37c-2.2,0-3.83-2.06-3.29-4.19.35-1.38.53-2.82.51-4.31-.1-9.01-7.47-16.35-16.48-16.41-9.23-.07-16.73,7.39-16.73,16.61,0,1.41.17,2.77.5,4.07.54,2.14-1.06,4.23-3.27,4.23h-28.38c-1.87,0-3.38-1.51-3.38-3.38Z"/>
          <path class="cls-3" d="M1044.24,702.74c-.07,9-7.38,16.36-16.38,16.48-2.35.03-4.58-.42-6.62-1.27-2.23-.93-4.68.7-4.68,3.11v29.32c0,1.86-1.51,3.37-3.37,3.37h-77.87c-11.61,0-21.03-9.42-21.03-21.03v-77.87c0-1.86,1.51-3.37,3.37-3.37h28.38c2.2,0,3.83-2.06,3.29-4.19-.35-1.38-.53-2.82-.51-4.31.1-9.01,7.47-16.35,16.48-16.41,9.23-.07,16.73,7.39,16.73,16.61,0,1.41-.18,2.78-.51,4.08-.54,2.14,1.06,4.22,3.26,4.22h28.4c1.86,0,3.37,1.51,3.37,3.37v29.33c0,2.42,2.46,4.02,4.69,3.09,1.96-.82,4.12-1.27,6.38-1.27,9.21,0,16.67,7.5,16.61,16.73Z"/>
          <path class="cls-10" d="M1113.73,652.23h-28.38c-2.2,0-3.83,2.06-3.29,4.19.35,1.38.53,2.82.51,4.31-.1,9.01-7.47,16.35-16.48,16.41-9.23.07-16.73-7.39-16.73-16.61,0-1.41.18-2.78.51-4.08.54-2.14-1.06-4.22-3.26-4.22h-28.4c-1.86,0-3.37-1.51-3.37-3.37v-29.32c0-2.41-2.45-4.04-4.68-3.11-2.03.85-4.27,1.3-6.62,1.27-9-.12-16.31-7.48-16.38-16.48-.07-9.23,7.39-16.73,16.61-16.73,2.26,0,4.41.45,6.38,1.27,2.23.93,4.69-.67,4.69-3.09v-29.33c0-1.86,1.51-3.37,3.37-3.37h77.87c11.61,0,21.03,9.42,21.03,21.03v77.87c0,1.86-1.51,3.37-3.37,3.37Z"/>
        </g>
      </g>
      <g>
        <g>
          <path class="cls-4" d="M917.58,452.95v77.86c0,11.61-10.21,21.03-21.66,21.03h-76.72c-1.84,0-3.33-1.51-3.33-3.38v-29.31c0-2.42,2.02-4.75,4.22-3.83,2,.85,4.6,2.01,6.91,1.98,8.86-.12,16.07-7.48,16.14-16.48.07-9.23-7.28-16.73-16.36-16.73-2.23,0-4.35.45-6.28,1.27-2.2.93-4.62-.67-4.62-3.09v-29.33c0-1.87,1.49-3.38,3.33-3.38h27.95c2.16,0,3.78,2.06,3.24,4.19-.35,1.38-.52,2.82-.5,4.31.1,9.01,7.36,16.35,16.24,16.41,9.09.07,14.64-7.39,14.64-16.61,0-1.41-.17-2.77-.5-4.07-.53-2.14,2.89-4.23,5.07-4.23h27.97c1.84,0,4.27,1.51,4.27,3.38Z"/>
          <path class="cls-4" d="M714.4,446.95v-77.86c0-11.61,9.42-21.03,21.03-21.03h77.86c1.87,0,3.38,1.51,3.38,3.38v29.31c0,2.42-2.46,4.04-4.69,3.11-2.03-.85-4.26-1.3-6.61-1.27-9,.12-16.31,7.48-16.38,16.48-.07,9.23,7.39,16.73,16.61,16.73,2.26,0,4.41-.45,6.38-1.27,2.23-.93,4.69.67,4.69,3.09v29.33c0,1.87-1.51,3.38-3.38,3.38h-28.37c-2.2,0-3.83-2.06-3.29-4.19.35-1.38.53-2.82.51-4.31-.1-9.01-7.47-16.35-16.48-16.41s-16.73,7.39-16.73,16.61c0,1.41.17,2.77.5,4.07.54,2.14-1.06,4.23-3.27,4.23h-28.38c-1.87,0-3.38-1.51-3.38-3.38Z"/>
          <path class="cls-4" d="M844.35,500.84c-.07,9-7.38,16.36-16.38,16.48-2.35.03-4.58-.42-6.62-1.27-2.23-.93-4.68.7-4.68,3.11v29.32c0,1.86-1.51,3.37-3.37,3.37h-77.87c-11.61,0-21.03-9.42-21.03-21.03v-77.87c0-1.86,1.51-3.37,3.37-3.37h28.38c2.2,0,3.83-2.06,3.29-4.19-.35-1.38-.53-2.82-.51-4.31.1-9.01,7.47-16.35,16.48-16.41,9.23-.07,16.73,7.39,16.73,16.61,0,1.41-.18,2.78-.51,4.08-.54,2.14,1.06,4.22,3.26,4.22h28.4c1.86,0,3.37,1.51,3.37,3.37v29.33c0,2.42,2.46,4.02,4.69,3.09,1.96-.82,4.12-1.27,6.38-1.27,9.21,0,16.67,7.5,16.61,16.73Z"/>
          <path class="cls-4" d="M913.84,450.33h-28.38c-2.2,0-3.83,2.06-3.29,4.19.35,1.38.53,2.82.51,4.31-.1,9.01-7.47,16.35-16.48,16.41-9.23.07-16.73-7.39-16.73-16.61,0-1.41.18-2.78.51-4.08.54-2.14-1.06-4.22-3.26-4.22h-28.4c-1.86,0-3.37-1.51-3.37-3.37v-29.32c0-2.41-2.45-4.04-4.68-3.11-2.03.85-4.27,1.3-6.62,1.27-9-.12-16.31-7.48-16.38-16.48-.07-9.23,7.39-16.73,16.61-16.73,2.26,0,4.41.45,6.38,1.27,2.23.93,4.69-.67,4.69-3.09v-29.33c0-1.86,1.51-3.37,3.37-3.37h77.87c11.61,0,21.03,9.42,21.03,21.03v77.87c0,1.86-1.51,3.37-3.37,3.37Z"/>
        </g>
        <g>
          <path class="cls-4" d="M917.58,654.86v77.86c0,11.61-10.21,21.03-21.66,21.03h-76.72c-1.84,0-3.33-1.51-3.33-3.38v-29.31c0-2.42,2.02-4.75,4.22-3.83,2,.85,4.6,2.01,6.91,1.98,8.86-.12,16.07-7.48,16.14-16.48.07-9.23-7.28-16.73-16.36-16.73-2.23,0-4.35.45-6.28,1.27-2.2.93-4.62-.67-4.62-3.09v-29.33c0-1.87,1.49-3.38,3.33-3.38h27.95c2.16,0,3.78,2.06,3.24,4.19-.35,1.38-.52,2.82-.5,4.31.1,9.01,7.36,16.35,16.24,16.41,9.09.07,14.64-7.39,14.64-16.61,0-1.41-.17-2.77-.5-4.07-.53-2.14,2.89-4.23,5.07-4.23h27.97c1.84,0,4.27,1.51,4.27,3.38Z"/>
          <path class="cls-4" d="M714.4,648.85v-77.86c0-11.61,9.42-21.03,21.03-21.03h77.86c1.87,0,3.38,1.51,3.38,3.38v29.31c0,2.42-2.46,4.04-4.69,3.11-2.03-.85-4.26-1.3-6.61-1.27-9,.12-16.31,7.48-16.38,16.48-.07,9.23,7.39,16.73,16.61,16.73,2.26,0,4.41-.45,6.38-1.27,2.23-.93,4.69.67,4.69,3.09v29.33c0,1.87-1.51,3.38-3.38,3.38h-28.37c-2.2,0-3.83-2.06-3.29-4.19.35-1.38.53-2.82.51-4.31-.1-9.01-7.47-16.35-16.48-16.41-9.23-.07-16.73,7.39-16.73,16.61,0,1.41.17,2.77.5,4.07.54,2.14-1.06,4.23-3.27,4.23h-28.38c-1.87,0-3.38-1.51-3.38-3.38Z"/>
          <path class="cls-4" d="M844.35,702.74c-.07,9-7.38,16.36-16.38,16.48-2.35.03-4.58-.42-6.62-1.27-2.23-.93-4.68.7-4.68,3.11v29.32c0,1.86-1.51,3.37-3.37,3.37h-77.87c-11.61,0-21.03-9.42-21.03-21.03v-77.87c0-1.86,1.51-3.37,3.37-3.37h28.38c2.2,0,3.83-2.06,3.29-4.19-.35-1.38-.53-2.82-.51-4.31.1-9.01,7.47-16.35,16.48-16.41,9.23-.07,16.73,7.39,16.73,16.61,0,1.41-.18,2.78-.51,4.08-.54,2.14,1.06,4.22,3.26,4.22h28.4c1.86,0,3.37,1.51,3.37,3.37v29.33c0,2.42,2.46,4.02,4.69,3.09,1.96-.82,4.12-1.27,6.38-1.27,9.21,0,16.67,7.5,16.61,16.73Z"/>
          <path class="cls-4" d="M913.84,652.23h-28.38c-2.2,0-3.83,2.06-3.29,4.19.35,1.38.53,2.82.51,4.31-.1,9.01-7.47,16.35-16.48,16.41-9.23.07-16.73-7.39-16.73-16.61,0-1.41.18-2.78.51-4.08.54-2.14-1.06-4.22-3.26-4.22h-28.4c-1.86,0-3.37-1.51-3.37-3.37v-29.32c0-2.41-2.45-4.04-4.68-3.11-2.03.85-4.27,1.3-6.62,1.27-9-.12-16.31-7.48-16.38-16.48-.07-9.23,7.39-16.73,16.61-16.73,2.26,0,4.41.45,6.38,1.27,2.23.93,4.69-.67,4.69-3.09v-29.33c0-1.86,1.51-3.37,3.37-3.37h77.87c11.61,0,21.03,9.42,21.03,21.03v77.87c0,1.86-1.51,3.37-3.37,3.37Z"/>
        </g>
        <g>
          <path class="cls-2" d="M1117.47,452.95v77.86c0,11.61-10.21,21.03-21.66,21.03h-76.72c-1.84,0-3.33-1.51-3.33-3.38v-29.31c0-2.42,2.02-4.75,4.22-3.83,2,.85,4.6,2.01,6.91,1.98,8.86-.12,16.07-7.48,16.14-16.48.07-9.23-7.28-16.73-16.36-16.73-2.23,0-4.35.45-6.28,1.27-2.2.93-4.62-.67-4.62-3.09v-29.33c0-1.87,1.49-3.38,3.33-3.38h27.95c2.16,0,3.78,2.06,3.24,4.19-.35,1.38-.52,2.82-.5,4.31.1,9.01,7.36,16.35,16.24,16.41,9.09.07,14.64-7.39,14.64-16.61,0-1.41-.17-2.77-.5-4.07-.53-2.14,2.89-4.23,5.07-4.23h27.97c1.84,0,4.27,1.51,4.27,3.38Z"/>
          <path class="cls-6" d="M914.29,446.95v-77.86c0-11.61,9.42-21.03,21.03-21.03h77.86c1.87,0,3.38,1.51,3.38,3.38v29.31c0,2.42-2.46,4.04-4.69,3.11-2.03-.85-4.26-1.3-6.61-1.27-9,.12-16.31,7.48-16.38,16.48-.07,9.23,7.39,16.73,16.61,16.73,2.26,0,4.41-.45,6.38-1.27,2.23-.93,4.69.67,4.69,3.09v29.33c0,1.87-1.51,3.38-3.38,3.38h-28.37c-2.2,0-3.83-2.06-3.29-4.19.35-1.38.53-2.82.51-4.31-.1-9.01-7.47-16.35-16.48-16.41s-16.73,7.39-16.73,16.61c0,1.41.17,2.77.5,4.07.54,2.14-1.06,4.23-3.27,4.23h-28.38c-1.87,0-3.38-1.51-3.38-3.38Z"/>
          <path class="cls-5" d="M1044.24,500.84c-.07,9-7.38,16.36-16.38,16.48-2.35.03-4.58-.42-6.62-1.27-2.23-.93-4.68.7-4.68,3.11v29.32c0,1.86-1.51,3.37-3.37,3.37h-77.87c-11.61,0-21.03-9.42-21.03-21.03v-77.87c0-1.86,1.51-3.37,3.37-3.37h28.38c2.2,0,3.83-2.06,3.29-4.19-.35-1.38-.53-2.82-.51-4.31.1-9.01,7.47-16.35,16.48-16.41,9.23-.07,16.73,7.39,16.73,16.61,0,1.41-.18,2.78-.51,4.08-.54,2.14,1.06,4.22,3.26,4.22h28.4c1.86,0,3.37,1.51,3.37,3.37v29.33c0,2.42,2.46,4.02,4.69,3.09,1.96-.82,4.12-1.27,6.38-1.27,9.21,0,16.67,7.5,16.61,16.73Z"/>
          <path class="cls-7" d="M1113.73,450.33h-28.38c-2.2,0-3.83,2.06-3.29,4.19.35,1.38.53,2.82.51,4.31-.1,9.01-7.47,16.35-16.48,16.41-9.23.07-16.73-7.39-16.73-16.61,0-1.41.18-2.78.51-4.08.54-2.14-1.06-4.22-3.26-4.22h-28.4c-1.86,0-3.37-1.51-3.37-3.37v-29.32c0-2.41-2.45-4.04-4.68-3.11-2.03.85-4.27,1.3-6.62,1.27-9-.12-16.31-7.48-16.38-16.48-.07-9.23,7.39-16.73,16.61-16.73,2.26,0,4.41.45,6.38,1.27,2.23.93,4.69-.67,4.69-3.09v-29.33c0-1.86,1.51-3.37,3.37-3.37h77.87c11.61,0,21.03,9.42,21.03,21.03v77.87c0,1.86-1.51,3.37-3.37,3.37Z"/>
        </g>
        <g>
          <path class="cls-2" d="M1117.47,654.86v77.86c0,11.61-10.21,21.03-21.66,21.03h-76.72c-1.84,0-3.33-1.51-3.33-3.38v-29.31c0-2.42,2.02-4.75,4.22-3.83,2,.85,4.6,2.01,6.91,1.98,8.86-.12,16.07-7.48,16.14-16.48.07-9.23-7.28-16.73-16.36-16.73-2.23,0-4.35.45-6.28,1.27-2.2.93-4.62-.67-4.62-3.09v-29.33c0-1.87,1.49-3.38,3.33-3.38h27.95c2.16,0,3.78,2.06,3.24,4.19-.35,1.38-.52,2.82-.5,4.31.1,9.01,7.36,16.35,16.24,16.41,9.09.07,14.64-7.39,14.64-16.61,0-1.41-.17-2.77-.5-4.07-.53-2.14,2.89-4.23,5.07-4.23h27.97c1.84,0,4.27,1.51,4.27,3.38Z"/>
          <path class="cls-6" d="M914.29,648.85v-77.86c0-11.61,9.42-21.03,21.03-21.03h77.86c1.87,0,3.38,1.51,3.38,3.38v29.31c0,2.42-2.46,4.04-4.69,3.11-2.03-.85-4.26-1.3-6.61-1.27-9,.12-16.31,7.48-16.38,16.48-.07,9.23,7.39,16.73,16.61,16.73,2.26,0,4.41-.45,6.38-1.27,2.23-.93,4.69.67,4.69,3.09v29.33c0,1.87-1.51,3.38-3.38,3.38h-28.37c-2.2,0-3.83-2.06-3.29-4.19.35-1.38.53-2.82.51-4.31-.1-9.01-7.47-16.35-16.48-16.41-9.23-.07-16.73,7.39-16.73,16.61,0,1.41.17,2.77.5,4.07.54,2.14-1.06,4.23-3.27,4.23h-28.38c-1.87,0-3.38-1.51-3.38-3.38Z"/>
          <path class="cls-4" d="M1044.24,702.74c-.07,9-7.38,16.36-16.38,16.48-2.35.03-4.58-.42-6.62-1.27-2.23-.93-4.68.7-4.68,3.11v29.32c0,1.86-1.51,3.37-3.37,3.37h-77.87c-11.61,0-21.03-9.42-21.03-21.03v-77.87c0-1.86,1.51-3.37,3.37-3.37h28.38c2.2,0,3.83-2.06,3.29-4.19-.35-1.38-.53-2.82-.51-4.31.1-9.01,7.47-16.35,16.48-16.41,9.23-.07,16.73,7.39,16.73,16.61,0,1.41-.18,2.78-.51,4.08-.54,2.14,1.06,4.22,3.26,4.22h28.4c1.86,0,3.37,1.51,3.37,3.37v29.33c0,2.42,2.46,4.02,4.69,3.09,1.96-.82,4.12-1.27,6.38-1.27,9.21,0,16.67,7.5,16.61,16.73Z"/>
          <path class="cls-7" d="M1113.73,652.23h-28.38c-2.2,0-3.83,2.06-3.29,4.19.35,1.38.53,2.82.51,4.31-.1,9.01-7.47,16.35-16.48,16.41-9.23.07-16.73-7.39-16.73-16.61,0-1.41.18-2.78.51-4.08.54-2.14-1.06-4.22-3.26-4.22h-28.4c-1.86,0-3.37-1.51-3.37-3.37v-29.32c0-2.41-2.45-4.04-4.68-3.11-2.03.85-4.27,1.3-6.62,1.27-9-.12-16.31-7.48-16.38-16.48-.07-9.23,7.39-16.73,16.61-16.73,2.26,0,4.41.45,6.38,1.27,2.23.93,4.69-.67,4.69-3.09v-29.33c0-1.86,1.51-3.37,3.37-3.37h77.87c11.61,0,21.03,9.42,21.03,21.03v77.87c0,1.86-1.51,3.37-3.37,3.37Z"/>
        </g>
      </g>
    </g>
    <g class="cls-9">
      <g>
        <g>
          <path class="cls-2" d="M880.05,429.75v96.31c0,14.37-12.63,26.01-26.79,26.01h-94.89c-2.27,0-4.12-1.87-4.12-4.18v-36.25c0-2.99,2.5-5.88,5.22-4.73,2.47,1.05,5.69,2.49,8.54,2.45,10.96-.15,19.88-9.26,19.96-20.39.08-11.41-9.01-20.69-20.24-20.69-2.75,0-5.38.56-7.77,1.57-2.72,1.15-5.72-.83-5.72-3.82v-36.27c0-2.31,1.84-4.18,4.12-4.18h34.58c2.68,0,4.67,2.55,4.01,5.18-.43,1.7-.64,3.49-.62,5.33.13,11.14,9.1,20.22,20.09,20.3,11.25.08,18.11-9.14,18.11-20.54,0-1.74-.21-3.43-.61-5.04-.66-2.65,3.57-5.23,6.27-5.23h34.59c2.27,0,5.28,1.87,5.28,4.18Z"/>
          <path class="cls-6" d="M628.74,422.32v-96.31c0-14.37,11.65-26.01,26.01-26.01h96.31c2.31,0,4.18,1.87,4.18,4.18v36.25c0,2.99-3.04,5-5.8,3.85-2.51-1.05-5.27-1.61-8.17-1.57-11.13.15-20.18,9.26-20.26,20.39-.08,11.41,9.14,20.69,20.54,20.69,2.79,0,5.46-.56,7.89-1.57,2.76-1.15,5.81.83,5.81,3.82v36.27c0,2.31-1.87,4.18-4.18,4.18h-35.09c-2.72,0-4.74-2.55-4.07-5.18.43-1.7.65-3.49.63-5.33-.13-11.14-9.24-20.22-20.39-20.3-11.41-.08-20.69,9.14-20.69,20.54,0,1.74.22,3.43.62,5.04.67,2.65-1.31,5.23-4.04,5.23h-35.11c-2.31,0-4.18-1.87-4.18-4.18Z"/>
          <path class="cls-5" d="M789.47,488.97c-.08,11.13-9.13,20.24-20.26,20.39-2.9.04-5.67-.53-8.18-1.57-2.75-1.15-5.79.86-5.79,3.84v36.27c0,2.3-1.87,4.17-4.17,4.17h-96.32c-14.37,0-26.01-11.65-26.01-26.01v-96.32c0-2.3,1.87-4.17,4.17-4.17h35.1c2.72,0,4.74-2.55,4.07-5.18-.43-1.7-.65-3.49-.63-5.33.13-11.14,9.24-20.22,20.39-20.3,11.41-.08,20.69,9.14,20.69,20.54,0,1.74-.22,3.43-.62,5.05-.67,2.65,1.31,5.22,4.04,5.22h35.13c2.3,0,4.17,1.87,4.17,4.17v36.28c0,2.99,3.05,4.97,5.81,3.82,2.43-1.01,5.09-1.57,7.89-1.57,11.4,0,20.62,9.28,20.54,20.69Z"/>
          <path class="cls-7" d="M875.43,426.5h-35.1c-2.72,0-4.74,2.55-4.07,5.18.43,1.7.65,3.49.63,5.33-.13,11.14-9.24,20.22-20.39,20.3-11.42.08-20.69-9.14-20.69-20.54,0-1.74.22-3.43.62-5.05.67-2.65-1.31-5.22-4.04-5.22h-35.13c-2.3,0-4.17-1.87-4.17-4.17v-36.27c0-2.98-3.04-4.99-5.79-3.84-2.51,1.05-5.28,1.61-8.18,1.57-11.13-.15-20.18-9.26-20.26-20.39-.08-11.41,9.14-20.69,20.54-20.69,2.79,0,5.46.56,7.89,1.57,2.76,1.15,5.81-.83,5.81-3.82v-36.28c0-2.3,1.87-4.17,4.17-4.17h96.32c14.37,0,26.01,11.65,26.01,26.01v96.32c0,2.3-1.87,4.17-4.17,4.17Z"/>
        </g>
        <g>
          <path class="cls-2" d="M880.05,679.48v96.31c0,14.37-12.63,26.01-26.79,26.01h-94.89c-2.27,0-4.12-1.87-4.12-4.18v-36.25c0-2.99,2.5-5.88,5.22-4.73,2.47,1.05,5.69,2.49,8.54,2.45,10.96-.15,19.88-9.26,19.96-20.39.08-11.41-9.01-20.69-20.24-20.69-2.75,0-5.38.56-7.77,1.57-2.72,1.15-5.72-.83-5.72-3.82v-36.27c0-2.31,1.84-4.18,4.12-4.18h34.58c2.68,0,4.67,2.55,4.01,5.18-.43,1.7-.64,3.49-.62,5.33.13,11.14,9.1,20.22,20.09,20.3s18.11-9.14,18.11-20.54c0-1.74-.21-3.43-.61-5.04-.66-2.65,3.57-5.23,6.27-5.23h34.59c2.27,0,5.28,1.87,5.28,4.18Z"/>
          <path class="cls-6" d="M628.74,672.06v-96.31c0-14.37,11.65-26.01,26.01-26.01h96.31c2.31,0,4.18,1.87,4.18,4.18v36.25c0,2.99-3.04,5-5.8,3.85-2.51-1.05-5.27-1.61-8.17-1.57-11.13.15-20.18,9.26-20.26,20.39-.08,11.41,9.14,20.69,20.54,20.69,2.79,0,5.46-.56,7.89-1.57,2.76-1.15,5.81.83,5.81,3.82v36.27c0,2.31-1.87,4.18-4.18,4.18h-35.09c-2.72,0-4.74-2.55-4.07-5.18.43-1.7.65-3.49.63-5.33-.13-11.14-9.24-20.22-20.39-20.3-11.41-.08-20.69,9.14-20.69,20.54,0,1.74.22,3.43.62,5.04.67,2.65-1.31,5.23-4.04,5.23h-35.11c-2.31,0-4.18-1.87-4.18-4.18Z"/>
          <path class="cls-5" d="M789.47,738.71c-.08,11.13-9.13,20.24-20.26,20.39-2.9.04-5.67-.53-8.18-1.57-2.75-1.15-5.79.86-5.79,3.84v36.27c0,2.3-1.87,4.17-4.17,4.17h-96.32c-14.37,0-26.01-11.65-26.01-26.01v-96.32c0-2.3,1.87-4.17,4.17-4.17h35.1c2.72,0,4.74-2.55,4.07-5.18-.43-1.7-.65-3.49-.63-5.33.13-11.14,9.24-20.22,20.39-20.3,11.41-.08,20.69,9.14,20.69,20.54,0,1.74-.22,3.43-.62,5.05-.67,2.65,1.31,5.22,4.04,5.22h35.13c2.3,0,4.17,1.87,4.17,4.17v36.28c0,2.99,3.05,4.97,5.81,3.82,2.43-1.01,5.09-1.57,7.89-1.57,11.4,0,20.62,9.28,20.54,20.69Z"/>
          <path class="cls-7" d="M875.43,676.23h-35.1c-2.72,0-4.74,2.55-4.07,5.18.43,1.7.65,3.49.63,5.33-.13,11.14-9.24,20.22-20.39,20.3-11.42.08-20.69-9.14-20.69-20.54,0-1.74.22-3.43.62-5.05.67-2.65-1.31-5.22-4.04-5.22h-35.13c-2.3,0-4.17-1.87-4.17-4.17v-36.27c0-2.98-3.04-4.99-5.79-3.84-2.51,1.05-5.28,1.61-8.18,1.57-11.13-.15-20.18-9.26-20.26-20.39-.08-11.41,9.14-20.69,20.54-20.69,2.79,0,5.46.56,7.89,1.57,2.76,1.15,5.81-.83,5.81-3.82v-36.28c0-2.3,1.87-4.17,4.17-4.17h96.32c14.37,0,26.01,11.65,26.01,26.01v96.32c0,2.3-1.87,4.17-4.17,4.17Z"/>
        </g>
        <g>
          <path class="cls-4" d="M1127.29,429.75v96.31c0,14.37-12.63,26.01-26.79,26.01h-94.89c-2.27,0-4.12-1.87-4.12-4.18v-36.25c0-2.99,2.5-5.88,5.22-4.73,2.47,1.05,5.69,2.49,8.54,2.45,10.96-.15,19.88-9.26,19.96-20.39.08-11.41-9.01-20.69-20.24-20.69-2.75,0-5.38.56-7.77,1.57-2.72,1.15-5.72-.83-5.72-3.82v-36.27c0-2.31,1.84-4.18,4.12-4.18h34.58c2.68,0,4.67,2.55,4.01,5.18-.43,1.7-.64,3.49-.62,5.33.13,11.14,9.1,20.22,20.09,20.3,11.25.08,18.11-9.14,18.11-20.54,0-1.74-.21-3.43-.61-5.04-.66-2.65,3.57-5.23,6.27-5.23h34.59c2.27,0,5.28,1.87,5.28,4.18Z"/>
          <path class="cls-4" d="M875.98,422.32v-96.31c0-14.37,11.65-26.01,26.01-26.01h96.31c2.31,0,4.18,1.87,4.18,4.18v36.25c0,2.99-3.04,5-5.8,3.85-2.51-1.05-5.27-1.61-8.17-1.57-11.13.15-20.18,9.26-20.26,20.39-.08,11.41,9.14,20.69,20.54,20.69,2.79,0,5.46-.56,7.89-1.57,2.76-1.15,5.81.83,5.81,3.82v36.27c0,2.31-1.87,4.18-4.18,4.18h-35.09c-2.72,0-4.74-2.55-4.07-5.18.43-1.7.65-3.49.63-5.33-.13-11.14-9.24-20.22-20.39-20.3-11.41-.08-20.69,9.14-20.69,20.54,0,1.74.22,3.43.62,5.04.67,2.65-1.31,5.23-4.04,5.23h-35.11c-2.31,0-4.18-1.87-4.18-4.18Z"/>
          <path class="cls-4" d="M1036.71,488.97c-.08,11.13-9.13,20.24-20.26,20.39-2.9.04-5.67-.53-8.18-1.57-2.75-1.15-5.79.86-5.79,3.84v36.27c0,2.3-1.87,4.17-4.17,4.17h-96.32c-14.37,0-26.01-11.65-26.01-26.01v-96.32c0-2.3,1.87-4.17,4.17-4.17h35.1c2.72,0,4.74-2.55,4.07-5.18-.43-1.7-.65-3.49-.63-5.33.13-11.14,9.24-20.22,20.39-20.3,11.41-.08,20.69,9.14,20.69,20.54,0,1.74-.22,3.43-.62,5.05-.67,2.65,1.31,5.22,4.04,5.22h35.13c2.3,0,4.17,1.87,4.17,4.17v36.28c0,2.99,3.05,4.97,5.81,3.82,2.43-1.01,5.09-1.57,7.89-1.57,11.4,0,20.62,9.28,20.54,20.69Z"/>
          <path class="cls-4" d="M1122.66,426.5h-35.1c-2.72,0-4.74,2.55-4.07,5.18.43,1.7.65,3.49.63,5.33-.13,11.14-9.24,20.22-20.39,20.3-11.42.08-20.69-9.14-20.69-20.54,0-1.74.22-3.43.62-5.05.67-2.65-1.31-5.22-4.04-5.22h-35.13c-2.3,0-4.17-1.87-4.17-4.17v-36.27c0-2.98-3.04-4.99-5.79-3.84-2.51,1.05-5.28,1.61-8.18,1.57-11.13-.15-20.18-9.26-20.26-20.39-.08-11.41,9.14-20.69,20.54-20.69,2.79,0,5.46.56,7.89,1.57,2.76,1.15,5.81-.83,5.81-3.82v-36.28c0-2.3,1.87-4.17,4.17-4.17h96.32c14.37,0,26.01,11.65,26.01,26.01v96.32c0,2.3-1.87,4.17-4.17,4.17Z"/>
        </g>
        <g>
          <path class="cls-4" d="M1127.29,679.48v96.31c0,14.37-12.63,26.01-26.79,26.01h-94.89c-2.27,0-4.12-1.87-4.12-4.18v-36.25c0-2.99,2.5-5.88,5.22-4.73,2.47,1.05,5.69,2.49,8.54,2.45,10.96-.15,19.88-9.26,19.96-20.39.08-11.41-9.01-20.69-20.24-20.69-2.75,0-5.38.56-7.77,1.57-2.72,1.15-5.72-.83-5.72-3.82v-36.27c0-2.31,1.84-4.18,4.12-4.18h34.58c2.68,0,4.67,2.55,4.01,5.18-.43,1.7-.64,3.49-.62,5.33.13,11.14,9.1,20.22,20.09,20.3s18.11-9.14,18.11-20.54c0-1.74-.21-3.43-.61-5.04-.66-2.65,3.57-5.23,6.27-5.23h34.59c2.27,0,5.28,1.87,5.28,4.18Z"/>
          <path class="cls-4" d="M875.98,672.06v-96.31c0-14.37,11.65-26.01,26.01-26.01h96.31c2.31,0,4.18,1.87,4.18,4.18v36.25c0,2.99-3.04,5-5.8,3.85-2.51-1.05-5.27-1.61-8.17-1.57-11.13.15-20.18,9.26-20.26,20.39-.08,11.41,9.14,20.69,20.54,20.69,2.79,0,5.46-.56,7.89-1.57,2.76-1.15,5.81.83,5.81,3.82v36.27c0,2.31-1.87,4.18-4.18,4.18h-35.09c-2.72,0-4.74-2.55-4.07-5.18.43-1.7.65-3.49.63-5.33-.13-11.14-9.24-20.22-20.39-20.3-11.41-.08-20.69,9.14-20.69,20.54,0,1.74.22,3.43.62,5.04.67,2.65-1.31,5.23-4.04,5.23h-35.11c-2.31,0-4.18-1.87-4.18-4.18Z"/>
          <path class="cls-5" d="M1036.71,738.71c-.08,11.13-9.13,20.24-20.26,20.39-2.9.04-5.67-.53-8.18-1.57-2.75-1.15-5.79.86-5.79,3.84v36.27c0,2.3-1.87,4.17-4.17,4.17h-96.32c-14.37,0-26.01-11.65-26.01-26.01v-96.32c0-2.3,1.87-4.17,4.17-4.17h35.1c2.72,0,4.74-2.55,4.07-5.18-.43-1.7-.65-3.49-.63-5.33.13-11.14,9.24-20.22,20.39-20.3,11.41-.08,20.69,9.14,20.69,20.54,0,1.74-.22,3.43-.62,5.05-.67,2.65,1.31,5.22,4.04,5.22h35.13c2.3,0,4.17,1.87,4.17,4.17v36.28c0,2.99,3.05,4.97,5.81,3.82,2.43-1.01,5.09-1.57,7.89-1.57,11.4,0,20.62,9.28,20.54,20.69Z"/>
          <path class="cls-4" d="M1122.66,676.23h-35.1c-2.72,0-4.74,2.55-4.07,5.18.43,1.7.65,3.49.63,5.33-.13,11.14-9.24,20.22-20.39,20.3-11.42.08-20.69-9.14-20.69-20.54,0-1.74.22-3.43.62-5.05.67-2.65-1.31-5.22-4.04-5.22h-35.13c-2.3,0-4.17-1.87-4.17-4.17v-36.27c0-2.98-3.04-4.99-5.79-3.84-2.51,1.05-5.28,1.61-8.18,1.57-11.13-.15-20.18-9.26-20.26-20.39-.08-11.41,9.14-20.69,20.54-20.69,2.79,0,5.46.56,7.89,1.57,2.76,1.15,5.81-.83,5.81-3.82v-36.28c0-2.3,1.87-4.17,4.17-4.17h96.32c14.37,0,26.01,11.65,26.01,26.01v96.32c0,2.3-1.87,4.17-4.17,4.17Z"/>
        </g>
      </g>
    </g>
  </g>
  <g>
    <path class="cls-3" d="M666.93,406.98l.65,18.77,29.22-1.02-.75-21.5,10.49,1.11,1.09,31.38-84.68,2.94-1.08-31.18,10.53-.37.69,19.83,24.05-.84-.65-18.77,10.44-.36Z"/>
    <path class="cls-3" d="M684.69,386.89l5,1.01c6.87,1.39,11.07-.07,12.14-5.34,1.09-5.39-3.11-8.05-10.07-9.45-9.26-1.87-12.86-.5-21.59,6.94-8.81,7.5-14.13,11.28-26.4,8.81-10.77-2.17-20.76-7.57-17.87-21.73,2.88-14.08,13.23-14.85,22.88-12.9l4.19.85-2.23,11.05-3.89-.79c-6.25-1.26-10.38-.92-11.36,3.94-.97,4.81,2.98,6.91,8.91,8.11,6.65,1.34,9.8.63,16.83-5.69,11.42-10.24,17.32-12.94,31.17-10.15,11.74,2.37,21.92,8.37,18.92,23.25-2.93,14.54-13.06,16.42-24,14.21l-4.86-.98,2.25-11.14Z"/>
    <path class="cls-3" d="M638.44,326.69l7.39-15.79c5.55-11.86,14.22-14.97,27.3-8.85l4.58,2.15c12.19,5.71,18.74,13.74,12.05,28.03l-2.29,4.88,32.52,15.22-4.82,10.29-76.74-35.93ZM678.98,333.12l1.78-3.8c3.72-7.94-.43-11.42-8.13-15.02l-3.92-1.83c-5.85-2.74-11.34-3.9-14.68,3.24l-2.2,4.71,27.15,12.71Z"/>
    <path class="cls-3" d="M718.07,306.36l17.13,17.86-7.14,9.07-58.04-63.25,9.96-12.64,75.41,41.2-7.35,9.33-21.58-12.21-8.39,10.65ZM717.4,290.34c-14.18-8.16-26.37-15.26-33.94-20.08l-.27.34c5.13,4.48,17.98,18.11,27.59,28.14l6.62-8.4Z"/>
    <path class="cls-3" d="M770.33,256.15l1.91,2.47c6.2,8.03,12.65,19.25-.67,29.54-12.08,9.33-20.59,3.19-28.36-6.88l-26.21-33.95c-8.11-10.51-8.45-20.58,1.47-28.24,12.02-9.28,20.59-2.82,27.6,6.26l2.19,2.84-9.05,6.99-2.91-3.77c-3.72-4.82-7.24-7.41-11.56-4.08-4.16,3.21-2.97,7.22,1,12.37l27.17,35.19c4.14,5.37,8.22,8.33,12.62,4.94,4.37-3.37,2.54-7.74-1.74-13.29l-2.59-3.36,9.13-7.04ZM774.6,283.86l.55,4.86c3.56-1.29,8.5-2.27,12.06,2.34,3.28,4.25,2.88,10.25-3.19,14.93-2.86,2.21-5.62,3.6-8.19,4.13l-2.71-6.39c1.79-.38,3.92-1.49,5.24-2.51,1.87-1.44,2.17-2.92,1.14-4.25-1.36-1.76-4.44-1.1-8.45,1.09l-1.8-2.33-1.09-6.92,6.43-4.96Z"/>
    <path class="cls-3" d="M799.06,201.35l16,37.63c6.13,14.42,3.05,23.97-9.5,29.31-12.42,5.28-20.75.04-26.61-13.77l-16.09-37.84c-6.05-14.22-2.08-24.03,9.3-28.86,11.7-4.97,21.01-.34,26.9,13.53ZM773.18,211.35l16.9,39.75c3.16,7.44,7.23,9.53,11.95,7.53,5.03-2.14,6.15-6.24,2.81-14.1l-16.81-39.54c-3.01-7.07-6.86-9.75-12.05-7.54-4.88,2.07-5.94,6.51-2.8,13.9Z"/>
  </g>
  <g>
    <path class="cls-3" d="M1000.96,800.47l16.78,4.74c12.6,3.56,17.08,11.61,13.16,25.51l-1.38,4.87c-3.66,12.96-10.52,20.72-25.71,16.43l-5.19-1.46-9.76,34.56-10.93-3.09,23.02-81.55ZM1001.18,841.53l4.04,1.14c8.43,2.38,11.2-2.28,13.51-10.46l1.18-4.16c1.75-6.21,2.01-11.82-5.57-13.96l-5-1.41-8.15,28.85Z"/>
    <path class="cls-3" d="M1045.55,865.2l-.21,10.03c-.12,5.64.98,11.16,6.53,11.28,5.59.12,6.54-4.66,6.65-9.99v-.41s11.1.23,11.1.23v.37c-.16,7.14-2.01,19.78-17.77,19.45-15.35-.32-17.85-10.1-17.57-23.3l.47-22.58c.2-9.32,3.54-21.65,18.54-21.34,13.36.28,17.34,9.73,17.08,22.04-.08,3.7-.23,11.01-.31,14.74l-24.52-.52ZM1059.34,856.46l.15-7.29c.13-6.05-1-10.47-6.43-10.58-5-.11-6.94,3.71-7.08,10.34l-.15,7.25,13.51.28Z"/>
    <path class="cls-3" d="M1106.39,798.7l16.63,68.92c2.12,8.77,3.27,13.57,4.24,17.03l-10.54,2.54c-.56-1.38-1.6-4.78-1.9-6.01-.87,4.45-3.1,8.26-9.41,9.79-11.09,2.68-15.61-5.57-18.56-17.8l-6.1-25.3c-2.68-11.1-.28-20.04,9.84-22.48,4.72-1.14,8.77-.37,11.07,2.18l-6.32-26.2,11.05-2.67ZM1092,845.87l6.11,25.34c1.63,6.78,4.14,9.97,8.81,8.84,5.77-1.39,5.71-7.03,3.81-14.89l-4.84-20.06c-1.67-6.91-3.59-12-9.73-10.51-4.75,1.15-5.6,5.32-4.16,11.28Z"/>
    <path class="cls-3" d="M1172.86,849.63c1.99,3.75,4.83,9.03,6.07,10.92l-9.22,4.88c-.9-1.07-2.48-3.21-3.02-4.05.11,4.85-2.4,8.07-6.66,10.33-8.52,4.51-16.05-1.44-20.7-10.21l-.53-1.01c-7.26-13.71-.5-22.58,9.84-28.05.53-.28,1.11-.59,1.81-.96l-4.28-8.09c-2.55-4.81-4.74-7.3-8.66-5.23-3.84,2.04-3.25,5.52-1.14,9.49l.63,1.19-9.88,5.23-.55-1.03c-4.35-8.22-4.96-17.06,6.91-23.34,10.67-5.65,17.54-1.35,22.29,7.62l17.11,32.31ZM1154.73,839.12c-.58.31-1.79.95-2.28,1.21-5.77,3.06-8.18,7.28-4.13,14.93l.49.93c2.39,4.51,5.73,7.12,9.69,5.02,4.45-2.36,4.44-6.6.14-14.72l-3.9-7.37Z"/>
    <path class="cls-3" d="M1223.59,820.35c9.46,10.25,16.32,19.8,3.37,31.75-10.82,9.98-19.16,4.76-24.01-.5l-.2-.22,8.38-7.73.22.24c1.61,1.75,5.5,4.65,9.64.83,4.37-4.03,2.15-8.11-3.75-14.52l-5.19-5.62c1.44,4.05.43,8.21-3.69,12.01-8.14,7.51-16.14,3.44-24.15-5.24l-17.14-18.58c-6.75-7.31-10.37-17.16-1.89-24.98,4.99-4.6,9.35-4.16,12.45-2.32-1.3-1.41-2.81-3.55-3.47-4.58l7.23-6.67c2.51,2.91,6.21,7.11,11.11,12.41l31.1,33.71ZM1175.89,805.54l16.11,17.46c4.99,5.4,8.8,6.87,12.12,3.81,4.65-4.29,1.59-9.14-4.05-15.25l-13-14.09c-4.32-4.68-8.41-8.14-12.79-4.1-3.49,3.22-2.98,7.2,1.61,12.18Z"/>
    <path class="cls-3" d="M1184.6,725.65l6.33,21.48-5.26,8.29-7.94-18.95,6.87-10.82ZM1221.79,748.57l21.94,13.93c11.85,7.53,13.93,16.95,7.75,26.69-6.33,9.97-15.49,11.58-27.13,4.19l-22.44-14.25c-11.37-7.22-12.89-17-6.98-26.3,6.14-9.67,15.73-11.33,26.87-4.25ZM1207.89,769.43l22.89,14.54c5.09,3.23,9.62,3.82,12.28-.37,2.49-3.92.82-7.49-5.11-11.25l-22.82-14.49c-4.73-3-9.06-3.77-11.82.56-2.56,4.02-.77,7.62,4.57,11.01Z"/>
    <path class="cls-3" d="M1278.5,717.78c13.27,4.27,23.95,9.21,18.55,25.99-4.51,14.01-14.33,13.57-21.16,11.37l-.28-.09,3.49-10.85.31.1c2.27.73,7.08,1.35,8.8-4.01,1.82-5.66-2.11-8.12-10.41-10.79l-7.28-2.34c3.25,2.82,4.41,6.94,2.7,12.27-3.39,10.55-12.36,10.94-23.61,7.32l-24.06-7.74c-9.47-3.05-17.46-9.84-13.93-20.82,2.08-6.46,6.1-8.22,9.69-8.14-1.82-.59-4.19-1.71-5.27-2.28l3.01-9.37c3.62,1.3,8.91,3.13,15.78,5.34l43.66,14.05ZM1229.69,728.35l22.61,7.28c7,2.25,11.04,1.65,12.43-2.65,1.94-6.02-3.11-8.74-11.03-11.29l-18.25-5.87c-6.06-1.95-11.33-2.95-13.15,2.72-1.46,4.53.94,7.74,7.39,9.81Z"/>
    <path class="cls-3" d="M1196.78,686.4l1.28-11.29,13.51,1.53-1.28,11.29-13.51-1.54ZM1219.88,689.12l1.28-11.29,64.79,7.36-1.28,11.29-64.79-7.36Z"/>
    <path class="cls-3" d="M1263.8,632.57l.89-.06c11.53-.81,21.49,1.43,22.5,15.8.99,14.04-8.33,17.59-21.65,18.53l-23.54,1.66c-10.78.76-20.94-2.26-21.91-16.06-1.04-14.82,9.61-17.47,17.92-18.05l2.52-.18.79,11.2-2.53.18c-5.38.38-9.4,1.54-9.06,6.39.31,4.34,3.73,5.7,10.14,5.25l28.07-1.97c5.08-.36,9.96-1.65,9.61-6.56-.32-4.57-3.77-5.57-10.3-5.11l-2.66.19-.79-11.2Z"/>
    <path class="cls-3" d="M1226.02,589.96l24.69-8.11c13.34-4.38,21.94,0,25.53,10.96,3.68,11.23-.88,19.32-13.98,23.62l-25.26,8.29c-12.79,4.2-21.32-.83-24.76-11.31-3.57-10.89,1.24-19.34,13.77-23.46ZM1233.32,613.93l25.77-8.46c5.73-1.88,9.06-5,7.51-9.72-1.45-4.41-5.27-5.39-11.94-3.19l-25.68,8.43c-5.32,1.75-8.67,4.61-7.07,9.49,1.49,4.53,5.4,5.43,11.41,3.46Z"/>
  </g>
  <path class="cls-3" d="M813.77,790.43c-7.78,1.25-15.35,2.12-22.48,2.58l-.58-8.83c6.86-.45,14.14-1.29,21.65-2.49l4.2-.71,1.54,8.72-4.34.73ZM844.35,783.93l-2.2-8.58,5.12-1.36c6.68-1.83,13.32-3.99,19.74-6.4l3.12,8.28c-6.67,2.52-13.57,4.75-20.52,6.66l-5.26,1.4ZM764.11,792.76c-9.73-.91-18.79-2.79-26.93-5.57l2.87-8.38c7.48,2.56,15.85,4.29,24.88,5.14l-.83,8.81ZM894.77,764.89l-4.06-7.86c7.55-3.91,15.08-8.36,22.37-13.24l4.91,7.36c-7.56,5.05-15.37,9.68-23.22,13.74ZM712.57,774.18c-7.37-5.68-13.68-12.66-18.73-20.75l7.51-4.69c4.49,7.2,10.08,13.4,16.63,18.43l-5.4,7.01ZM939.59,735.06l-5.63-6.83c6.49-5.34,13.03-11.23,19.42-17.5l6.2,6.32c-6.59,6.45-13.31,12.5-19.99,18.01ZM978.08,697.58l-6.62-5.87c5.55-6.27,11.24-13.05,16.92-20.18l6.93,5.51c-5.77,7.25-11.57,14.16-17.23,20.54ZM682.87,727.96c-1.13-4.09-2.08-8.45-2.83-12.97-3.13.75-6.3,1.44-9.51,2.07l-1.71-8.68c3.41-.67,6.78-1.41,10.08-2.22-.17-1.75-.31-3.51-.42-5.29l8.84-.54c.07,1.18.15,2.35.26,3.51,2.17-.63,4.3-1.29,6.41-1.97l2.75,8.41c-2.64.87-5.35,1.69-8.09,2.47l.09.57c.7,4.29,1.6,8.42,2.66,12.27l-8.53,2.37ZM643.79,720.81c-8.72.78-17.77,1.16-26.91,1.15v-8.85c8.88.01,17.67-.36,26.12-1.11l.79,8.81ZM1011.53,655.76l-7.14-5.23c5.21-7.11,10.31-14.31,15.34-21.56l7.27,5.05c-5.08,7.31-10.22,14.57-15.47,21.74ZM721.88,699.92l-4-7.89c8.1-4.12,15.37-8.74,21.58-13.73l5.55,6.89c-6.7,5.39-14.47,10.34-23.13,14.74ZM763.8,664.47l-7.59-4.55c3.83-6.39,5.43-12.45,4.62-17.5-.2-1.29-.56-2.49-1.07-3.6l8.04-3.7c.86,1.86,1.45,3.85,1.77,5.92,1.14,7.12-.85,15.22-5.77,23.43ZM688.4,675.21l-8.6-2.09c2.17-8.98,6.68-17.19,13.01-23.73l1.07-1.11,6.32,6.19-1.01,1.05c-5.26,5.43-8.99,12.23-10.79,19.68ZM1042.02,612.05l-7.33-4.96,14.87-22.02,7.33,4.97-14.87,22.02ZM719.76,637.95l-4.9-7.37c9.58-6.37,18.46-9.82,26.75-10.14l.37,8.84c-6.74.29-14.02,3.2-22.23,8.66ZM1071.9,568.19l-7.24-5.08c5.15-7.36,10.35-14.59,15.63-21.65l7.08,5.31c-5.23,6.98-10.37,14.14-15.48,21.43ZM1103.64,526.04l-6.81-5.65c6.11-7.37,11.93-13.95,17.8-20.1l6.41,6.11c-5.73,6.01-11.41,12.43-17.4,19.64ZM1139.89,488.36l-5.79-6.7c7.04-6.09,14.26-11.63,21.44-16.46l4.94,7.35c-6.89,4.63-13.82,9.95-20.6,15.81ZM1182.87,459.69l-3.82-7.98c8.19-3.92,16.69-7.22,25.29-9.78l2.53,8.48c-8.16,2.44-16.24,5.56-24.01,9.29ZM1257.92,443.35c-8.8-.04-17.51.51-25.87,1.64l-1.18-8.77c8.76-1.18,17.88-1.76,27.1-1.72l-.05,8.85Z"/>
</svg>